<?xml version="1.0" encoding="UTF-8"?>
<svg id="Layer_2" data-name="Layer 2" xmlns="http://www.w3.org/2000/svg" xmlns:xlink="http://www.w3.org/1999/xlink" viewBox="0 0 651.7 629.07">
  <defs>
    <style>
      .cls-1 {
        opacity: .07;
      }

      .cls-1, .cls-2, .cls-3, .cls-4, .cls-5, .cls-6, .cls-7, .cls-8, .cls-9 {
        stroke-width: 0px;
      }

      .cls-1, .cls-10 {
        isolation: isolate;
      }

      .cls-2 {
        fill: url(#linear-gradient);
      }

      .cls-3 {
        fill: url(#linear-gradient-5);
      }

      .cls-4 {
        fill: none;
      }

      .cls-5 {
        fill: url(#linear-gradient-2);
      }

      .cls-6 {
        fill: url(#linear-gradient-3);
      }

      .cls-11 {
        clip-path: url(#clippath);
      }

      .cls-7 {
        fill: #2a90ff;
      }

      .cls-8 {
        fill: url(#linear-gradient-4);
      }

      .cls-9 {
        fill: #4b49bb;
      }
    </style>
    <linearGradient id="linear-gradient" x1="240.75" y1="206.18" x2="651.7" y2="206.18" gradientUnits="userSpaceOnUse">
      <stop offset="0" stop-color="#4b45bd"/>
      <stop offset="1" stop-color="#58caea"/>
    </linearGradient>
    <linearGradient id="linear-gradient-2" x1="954.82" y1="-1005.28" x2="1389.13" y2="-1005.28" gradientTransform="translate(-687.61 -391.72) scale(.72 -.72)" gradientUnits="userSpaceOnUse">
      <stop offset="0" stop-color="#f87b58"/>
      <stop offset=".5" stop-color="#f8c548"/>
      <stop offset="1" stop-color="#f89c51"/>
    </linearGradient>
    <linearGradient id="linear-gradient-3" x1="135.7" y1="-653.52" x2="292.05" y2="-653.52" gradientTransform="translate(-31.1 -97.43) scale(.72 -.72)" xlink:href="#linear-gradient"/>
    <linearGradient id="linear-gradient-4" x1="1045.32" y1="-884.44" x2="1238.3" y2="-884.44" gradientTransform="translate(-687.61 -391.72) scale(.72 -.72)" xlink:href="#linear-gradient"/>
    <linearGradient id="linear-gradient-5" x1="1061.92" y1="-676.26" x2="1169.29" y2="-676.26" gradientTransform="translate(-687.61 -391.72) scale(.72 -.72)" xlink:href="#linear-gradient"/>
    <clipPath id="clippath">
      <polygon class="cls-4" points="240.12 449.22 237.21 369.14 638.67 439.93 641.58 520.01 240.12 449.22"/>
    </clipPath>
  </defs>
  <g id="Layer_1-2" data-name="Layer 1">
    <path class="cls-2" d="m240.75,58.83v139.33h168.02V35.74l-168.02,23.09h0Zm188.29-26.34L651.7,0v196.75h-222.65V32.48h0Zm-188.29,182.82v139.33l168.02,23.52v-162.85h-168.02Zm188.29,2.18h222.65v194.87l-222.65-31.54v-163.32h0Z"/>
    <g>
      <path class="cls-9" d="m184.2,616.41c-8.85-.48-18.82-10.62-18.82-10.62l-19.79-2.57s-6.11,18.66.48,22.52c6.6,3.86,46.33,4.99,46.33,0,0-4.99-.64-9.01-8.2-9.33Z"/>
      <path class="cls-9" d="m49.57,615.77c-7.72-4.34-12.06-18.02-12.06-18.02l-16.57-11.1s-13.99,13.99-9.65,20.27,39.09,25.41,41.34,20.91c2.25-4.5,3.54-8.2-3.06-12.06Z"/>
    </g>
    <path class="cls-5" d="m79.17,84.63s18.98-40.21,49.54-19.3,31.21,48.42,22.04,61.61c-10.78,15.6-8.04,28.31-6.11,33.3.48,1.45,1.61,2.73,2.9,3.38l51.63,28.95,20.59,19.46,49.54-62.41s8.04-11.26,22.52-11.26,20.91,4.83,20.91,4.83c0,0,1.61,6.43-16.09,11.26l-17.69,4.83-45.04,80.43s-13.35,5.63-27.67-6.27c-12.55-10.46-24.29-21.72-35.07-33.94l-1.61,186.59,5.47,53.4-2.25,31.53c.16,2.9-1.13,34.1-1.29,37l-3.54,48.26-4.34,48.9-18.02-2.25-3.06-35.39-7.08-127.24-.8-115.01-31.21,72.06,1.13,41.98-25.74,79.78c-1.13,3.38-2.41,6.6-4.02,9.65l-36.84,69.49-17.37-10.78,19.79-50.19c2.09-4.34,12.39-37.64,13.67-42.3l13.19-62.41,57.26-218.28-28.79,14.64s-21.07,47.13-24.29,51.96c-3.22,4.83-41.66,53.4-43.27,59.84s-7.72,18.82-15.76,22.04c-8.04,3.22-22.52,8.53-1.61-22.04,16.41-23.97,26.86-41.82,30.72-48.26.97-1.77,1.93-3.54,2.73-5.47l21.72-54.69,34.58-55.49,4.66-3.38,9.81-7.72c1.29-.97,1.93-2.57,1.77-4.18-1.13-7.4-4.99-14.16-10.94-18.66-11.26-9.01-34.1-26.06-26.7-58.23Z"/>
    <polygon class="cls-6" points="85.92 328.16 66.62 432.72 105.22 440.76 129.35 353.9 135.14 440.6 175.52 440.6 179.22 305.64 85.92 328.16"/>
    <path class="cls-8" d="m65.17,233.42s12.39-44.72,37.32-59.52c2.57-1.45,7.08-6.11,7.4-3.38.48,4.83,3.22,16.09,14.48,16.09,17.69,0,22.84-14.8,22.84-22.84,0-2.41,9.97-1.93,18.66-.48,8.2,1.29,16.41,4.83,21.88,10.94l16.41,23-15.28,16.89-4.83,2.57-4.83,89.11s-35.55,16.41-67.56,20.91c-8.53.97-17.21,1.61-25.74,1.61l6.43-91.69-27.18-3.22Z"/>
    <path class="cls-3" d="m90.27,112.94c5.63-6.76,11.74-13.03,18.34-18.82,9.33-7.72,14.16-12.22,14.16-12.22,0,0,12.71,9.33,17.85,11.1s12.87,4.99,12.87,4.99c0,0,4.34-14.48-6.43-16.25s-43.11-13.51-49.86-8.36c-6.76,5.15-18.18,19.95-19.79,27.02-1.61,7.08,2.41,16.25,4.99,18.02,1.45.97-2.57-7.24-.32-8.85,1.61-1.45,8.2,3.38,8.2,3.38Z"/>
    <path class="cls-9" d="m77.4,100.39l100.86-23.65s1.93-4.66-1.77-4.83-26.7,7.56-26.7,7.56c0,0-9.97-29.28-42.47-28.63,0,0,1.29-2.9-.48-3.06s-10.13,2.09-10.78,2.73,1.29,2.57.32,3.38-29.28,14.32-18.98,46.49Z"/>
    <path class="cls-1" d="m147.85,130.31s-6.6,8.2-11.9,9.97-2.25,1.93,0,8.53c1.13,3.54,2.73,6.76,4.83,9.81,0,0,2.9-25.9,7.08-28.31Z"/>
    <path class="cls-1" d="m96.38,54.07s4.5,4.34,1.61,15.76c-2.9,11.42-3.86,14.96-1.45,19.3s.64,6.76.64,6.76l-19.79,4.66c.16-.16-12.22-29.11,18.98-46.49Z"/>
    <path class="cls-1" d="m92.36,236.48s6.27-9.01,6.92-17.21-2.9,16.25,1.13,30.88c4.02,14.64-.64,27.35,7.56,32.49s1.77,22.68,3.54,30.24c1.13,4.5,4.34,8.2,8.69,9.97,0,0-1.13,4.02-15.12,4.66-13.99.64-19.14.64-19.14.64l6.43-91.69Z"/>
    <g class="cls-10">
      <g class="cls-11">
        <g>
          <path class="cls-7" d="m313.04,388.84l-12.1-1.94-4.89,37.61c-.33,2.7-.67,5.77-1,9.22-.34,3.45-.6,6.71-.81,9.8-1.08-7.01-2.25-13.64-3.52-19.87l-8.39-39.74-13.62-2.19-5.29,38.32c-.59,4.52-1.18,10.56-1.76,18.13-.48-3.42-1.02-6.9-1.61-10.41-.6-3.52-1.14-6.36-1.62-8.52l-8.68-40.57-12.27-1.97.04.9,17.14,74.19,14.89,2.39,4.93-38.83c.6-4.29,1.08-9.54,1.44-15.73.88,6.4,1.81,11.87,2.79,16.42l8.44,40.97,14.89,2.4,11.03-69.66-.04-.9"/>
          <polyline class="cls-7" points="332.41 391.95 320.73 390.08 323.78 462.89 335.46 464.77 332.41 391.95"/>
          <path class="cls-7" d="m393.16,401.72l-11.68-1.88,2.06,49.11c-.51-1.42-1.12-2.9-1.83-4.43-.71-1.53-1.5-3.16-2.36-4.9-.86-1.73-1.41-2.84-1.66-3.33l-20.33-40.32-12.86-2.07,3.05,72.81,11.68,1.88-2.07-49.22c1.08,2.93,2.17,5.58,3.29,7.95,1.11,2.38,2.46,5.18,4.06,8.41l18.66,36.7,13.03,2.09-3.05-72.81"/>
          <path class="cls-7" d="m419.32,464.63l-1.9-45.4,6.54,1.06c.17.03.33.05.5.08,3.73.66,6.86,1.88,9.4,3.68,2.65,1.87,4.71,4.56,6.17,8.08,1.46,3.51,2.31,8.07,2.55,13.69.25,6.06-.29,10.63-1.62,13.69-1.34,3.06-3.42,4.98-6.25,5.75-2.83.77-6.67.77-11.49,0l-3.89-.62m4.89-57.92c-.25-.04-.51-.09-.77-.13l-18.27-2.94,3.05,72.82,17.85,2.87c5.53.9,10.53.39,15.02-1.49,4.48-1.88,7.99-5.33,10.53-10.36,2.53-5.02,3.63-11.58,3.29-19.67-.56-13.26-3.57-23.07-9.05-29.41-5.33-6.18-12.55-10.07-21.66-11.68"/>
          <path class="cls-7" d="m489.38,478.11c-4.78-.84-8.52-3.66-11.19-8.44-2.73-4.86-4.26-11.26-4.59-19.21-.32-7.64.75-13.44,3.22-17.4,2.47-3.95,6.24-5.53,11.32-4.71.08.01.15.03.23.04,4.74.84,8.45,3.64,11.13,8.43,2.73,4.87,4.25,11.27,4.59,19.21.21,5.02-.19,9.29-1.19,12.81s-2.63,6.09-4.89,7.69c-2.26,1.61-5.05,2.15-8.37,1.61-.09-.01-.17-.03-.26-.04m-1.26-62.69c-.17-.03-.35-.06-.52-.09-5.13-.83-9.74-.21-13.83,1.85-4.09,2.06-7.28,5.71-9.58,10.96-2.3,5.24-3.28,12.06-2.93,20.45.32,7.57,1.64,14.39,3.96,20.45,2.32,6.06,5.61,11.03,9.83,14.91,4.11,3.77,8.99,6.15,14.65,7.15.16.03.32.06.48.08,5.13.83,9.74.21,13.83-1.85,4.09-2.06,7.27-5.71,9.54-10.97,2.27-5.25,3.23-12.07,2.88-20.47-.32-7.56-1.62-14.37-3.93-20.44-2.3-6.06-5.56-11.03-9.78-14.9-4.1-3.76-8.97-6.15-14.61-7.14"/>
          <path class="cls-7" d="m593.67,433.94l-12.1-1.94-4.9,37.6c-.33,2.7-.66,5.78-1,9.22-.34,3.45-.6,6.72-.81,9.81-1.08-7.02-2.25-13.65-3.52-19.87l-8.39-39.75-13.62-2.19-5.29,38.33c-.59,4.52-1.18,10.56-1.76,18.13-.48-3.42-1.02-6.9-1.61-10.42-.59-3.51-1.14-6.35-1.62-8.52l-8.67-40.56-12.27-1.97.04.9,17.14,74.18,14.89,2.4,4.92-38.83c.6-4.3,1.08-9.54,1.44-15.73.88,6.4,1.81,11.87,2.79,16.41l8.44,40.98,14.89,2.39,11.03-69.65-.04-.9"/>
          <path class="cls-7" d="m618.19,436.32c-.1-.02-.21-.04-.31-.05-3.5-.56-6.77-.38-9.81.55-3.04.92-5.49,2.74-7.33,5.46s-2.67,6.36-2.48,10.93c.17,4.12.97,7.63,2.38,10.54s3.25,5.4,5.52,7.47c2.27,2.08,5.25,4.34,8.94,6.79l1.99,1.33c3.06,2.05,5.35,3.71,6.89,4.96,1.53,1.25,2.62,2.47,3.26,3.65.64,1.18.99,2.59,1.06,4.25.11,2.69-.72,4.57-2.5,5.62-1.77,1.06-4.27,1.32-7.49.8-.09-.01-.18-.03-.27-.05-4.94-.87-10.07-3.89-15.4-9.06l-4.95,10.26c6.03,6.64,13.15,10.68,21.37,12.13.19.03.38.07.57.1,4.17.67,7.88.44,11.11-.67,3.23-1.12,5.74-3.18,7.51-6.21,1.78-3.02,2.57-6.97,2.36-11.84-.2-4.65-1.11-8.56-2.75-11.71-1.64-3.17-3.6-5.72-5.88-7.65-2.28-1.93-5.25-4.08-8.92-6.45l-1.89-1.2c-2.8-1.78-4.96-3.3-6.46-4.55-1.5-1.24-2.55-2.42-3.15-3.51-.6-1.1-.93-2.29-.99-3.56-.08-2.03.53-3.52,1.86-4.5,1.32-.98,3.33-1.25,6.02-.82.09.01.18.03.26.04,2.31.41,4.49,1.24,6.53,2.49,2.11,1.31,4.56,3.27,7.35,5.87l5-10.13c-3.16-3.18-6.45-5.74-9.86-7.66-3.3-1.86-6.48-3.06-9.55-3.6"/>
        </g>
      </g>
    </g>
  </g>
</svg>